<svg width="147" height="62" viewBox="0 0 147 62" fill="none" xmlns="http://www.w3.org/2000/svg">
<path d="M53.6963 15.7066L26.8755 0V31.0827L53.6963 15.7066Z" fill="#F9A125"/>
<path d="M0 46.5505L26.8575 62L26.8758 31.0827L0 46.5505Z" fill="#F9AF20"/>
<path d="M0.0183673 15.4679L0 46.5505L26.8758 31.0827L0.0183673 15.4679Z" fill="#FFCB16"/>
<path d="M26.8758 0L0.0183716 15.4679L26.8758 31.0827V0Z" fill="#F5B21B"/>
<path d="M51.2712 27.574C51.2712 26.6824 50.9171 25.8273 50.2866 25.1968C49.6561 24.5664 48.8011 24.2122 47.9095 24.2122C47.1536 24.2113 46.4205 24.4708 45.8336 24.947L30.3474 34.1322V56.9665L47.689 47.0649L47.9462 46.9179C48.8432 46.3089 49.5969 45.512 50.1552 44.5825C50.7135 43.6531 51.063 42.6134 51.1794 41.5354V41.2966V27.8128C51.218 27.7365 51.2488 27.6565 51.2712 27.574ZM46.7705 34.0587V41.1497C46.7228 41.5906 46.5778 42.0155 46.3459 42.3935C46.114 42.7716 45.8009 43.0934 45.4295 43.3357L39.5877 46.4771L36.2994 48.3141V37.1633L38.9447 35.6018L42.4718 33.5076L44.1252 32.534C44.1252 32.534 44.4191 32.3319 44.566 32.2584C44.7494 32.1937 44.9413 32.1565 45.1355 32.1482C45.5441 32.1591 45.935 32.3177 46.2356 32.5947C46.5362 32.8717 46.7262 33.2482 46.7705 33.6546V34.0403V34.0587Z" fill="#F36B2B"/>
<path d="M38.9449 35.6018L42.472 33.5076L44.1254 32.534C44.1254 32.534 44.4193 32.3319 44.5663 32.2584C44.7496 32.1937 44.9415 32.1566 45.1357 32.1482C45.5443 32.1591 45.9352 32.3178 46.2358 32.5947C46.5364 32.8717 46.7264 33.2482 46.7707 33.6546V41.1313C46.7146 41.6058 46.5445 42.0596 46.2747 42.454L50.059 44.7686C50.704 43.7937 51.107 42.679 51.2347 41.5171V41.2783V27.7944C51.2422 27.715 51.2422 27.635 51.2347 27.5556C51.2347 26.664 50.8805 25.8089 50.2501 25.1785C49.6196 24.548 48.7645 24.1939 47.8729 24.1939C47.1171 24.1929 46.384 24.4524 45.7971 24.9287L31.4866 33.3974L36.9977 36.7776L38.9449 35.6018Z" fill="#F17C24"/>
<path d="M75.6856 39.386C75.6443 39.5493 75.576 39.7045 75.4835 39.8452C75.387 39.9632 75.2599 40.0522 75.1161 40.1024C74.9133 40.165 74.7035 40.202 74.4915 40.2127H72.4524C72.234 40.2053 72.0177 40.1682 71.8094 40.1024C71.6755 40.0526 71.56 39.9628 71.4788 39.8452C71.3987 39.7023 71.3429 39.5471 71.3134 39.386L68.8885 29.8334L66.6106 39.386C66.5844 39.5422 66.5282 39.692 66.4453 39.8269C66.3649 39.9453 66.2492 40.0353 66.1146 40.0841C65.9155 40.163 65.7041 40.2065 65.49 40.2127H63.3774C63.1653 40.2036 62.9553 40.1666 62.7528 40.1024C62.6138 40.0528 62.4924 39.9633 62.4038 39.8452C62.3319 39.6987 62.2764 39.5447 62.2385 39.386L58.8032 26.2328C58.7393 26.0177 58.7023 25.7956 58.693 25.5715C58.6834 25.5044 58.6901 25.436 58.7125 25.3721C58.7348 25.3081 58.7723 25.2505 58.8216 25.2041C58.9577 25.0969 59.1259 25.0387 59.2992 25.0387H61.1362C61.2943 25.012 61.4558 25.012 61.6139 25.0387C61.7051 25.0749 61.7823 25.1392 61.8343 25.2225C61.8493 25.3383 61.8493 25.4556 61.8343 25.5715L64.4797 37.1265L67.2352 25.6633C67.2642 25.5387 67.3011 25.416 67.3454 25.2959C67.4085 25.1995 67.4977 25.1231 67.6026 25.0755C67.7613 25.0134 67.9286 24.9762 68.0986 24.9652H69.8438C70.02 24.9743 70.1937 25.0116 70.3582 25.0755C70.465 25.1105 70.5561 25.182 70.6153 25.2776C70.6776 25.3989 70.7209 25.5289 70.7439 25.6633L73.5913 37.1265L76.3101 25.7368C76.2948 25.6333 76.2948 25.528 76.3101 25.4245C76.3528 25.3256 76.4317 25.2468 76.5306 25.2041C76.6756 25.1393 76.8313 25.1019 76.9899 25.0938H78.6432C78.7994 25.0958 78.9496 25.1545 79.0657 25.2592C79.1452 25.3715 79.184 25.5076 79.1759 25.645C79.1483 25.8742 79.1053 26.1012 79.0473 26.3247L75.6856 39.386Z" fill="white"/>
<path d="M90.3818 38.9636C90.3941 39.1532 90.3941 39.3434 90.3818 39.5331C90.4052 39.6544 90.4052 39.7791 90.3818 39.9005C90.3595 39.9836 90.3071 40.0556 90.2349 40.1026C90.2058 40.1147 90.1745 40.1209 90.143 40.1209C90.1115 40.1209 90.0803 40.1147 90.0512 40.1026H82.4826C82.2398 40.1099 82.0033 40.0245 81.8212 39.8637C81.7282 39.7668 81.6571 39.6511 81.6127 39.5243C81.5684 39.3975 81.5518 39.2627 81.5641 39.1289V25.9757C81.5529 25.8421 81.5701 25.7076 81.6144 25.581C81.6587 25.4544 81.7292 25.3385 81.8212 25.2409C82.0093 25.0927 82.2432 25.0147 82.4826 25.0205H89.9961C90.0621 25.0016 90.1321 25.0016 90.1982 25.0205C90.2596 25.074 90.3043 25.1442 90.3267 25.2226C90.3415 25.3446 90.3415 25.468 90.3267 25.59C90.3389 25.7857 90.3389 25.982 90.3267 26.1778C90.3377 26.3613 90.3377 26.5454 90.3267 26.7289C90.3415 26.851 90.3415 26.9743 90.3267 27.0963C90.3043 27.1747 90.2596 27.2449 90.1982 27.2984C90.1321 27.3173 90.0621 27.3173 89.9961 27.2984H84.6135V30.9725H89.1694C89.2354 30.9536 89.3054 30.9536 89.3715 30.9725C89.4348 31.0281 89.485 31.0971 89.5184 31.1745C89.5332 31.2966 89.5332 31.4199 89.5184 31.542C89.5429 31.909 89.5429 32.2772 89.5184 32.6442C89.5332 32.7662 89.5332 32.8895 89.5184 33.0116C89.4898 33.0866 89.4384 33.1508 89.3715 33.1953C89.3054 33.2142 89.2354 33.2142 89.1694 33.1953H84.6135V37.4572H90.1247C90.1845 37.4388 90.2485 37.4388 90.3084 37.4572C90.3779 37.5147 90.4291 37.5913 90.4553 37.6777C90.4811 37.7988 90.4811 37.924 90.4553 38.0451C90.4635 38.353 90.4389 38.6609 90.3818 38.9636Z" fill="white"/>
<path d="M103.994 35.6385C104.001 36.1371 103.927 36.6335 103.774 37.1081C103.631 37.5223 103.427 37.9125 103.168 38.2654C102.901 38.5989 102.585 38.89 102.231 39.1288C101.858 39.3723 101.457 39.5696 101.037 39.7166C100.583 39.876 100.116 39.9929 99.6405 40.0657C99.0991 40.1434 98.5526 40.1802 98.0056 40.1759H93.9457C93.7083 40.1843 93.4772 40.0985 93.3028 39.9371C93.2097 39.8402 93.1386 39.7245 93.0942 39.5977C93.0499 39.4709 93.0333 39.336 93.0456 39.2023V26.0491C93.0344 25.9155 93.0516 25.7809 93.0959 25.6543C93.1402 25.5277 93.2107 25.4118 93.3028 25.3143C93.4836 25.1659 93.7119 25.0877 93.9457 25.0938H97.7484C98.5319 25.0798 99.3144 25.1537 100.081 25.3143C100.665 25.4519 101.219 25.6947 101.716 26.0308C102.147 26.3384 102.495 26.7488 102.727 27.2248C102.964 27.7563 103.083 28.3329 103.076 28.9149C103.075 29.269 103.025 29.6212 102.929 29.962C102.843 30.2703 102.707 30.5622 102.525 30.8254C102.344 31.0979 102.121 31.3398 101.863 31.5419C101.591 31.7479 101.287 31.9092 100.963 32.0195C101.379 32.0929 101.782 32.2292 102.157 32.4237C102.888 32.8251 103.45 33.4776 103.737 34.2607C103.901 34.7018 103.988 35.1678 103.994 35.6385ZM100.045 29.3007C100.047 29.0184 99.9971 28.7382 99.8977 28.474C99.8118 28.2439 99.6659 28.041 99.4752 27.8862C99.2747 27.7104 99.0356 27.5844 98.7771 27.5187C98.4059 27.4199 98.0221 27.3766 97.6382 27.3901H96.0951V31.2479H97.8035C98.1659 31.2603 98.5274 31.2042 98.869 31.0826C99.1148 30.9969 99.3357 30.8517 99.5119 30.6601C99.69 30.4762 99.8276 30.2572 99.9161 30.0171C99.9909 29.7851 100.034 29.5442 100.045 29.3007ZM100.816 35.7487C100.822 35.4287 100.766 35.1106 100.651 34.8118C100.529 34.5466 100.354 34.309 100.137 34.1137C99.8827 33.9121 99.5881 33.7679 99.2731 33.6912C98.8295 33.5765 98.3716 33.527 97.9137 33.5442H96.0767V37.8245H98.2811C98.6468 37.8358 99.0121 37.7925 99.365 37.6959C99.6408 37.6135 99.897 37.476 100.118 37.2918C100.337 37.125 100.508 36.9031 100.614 36.6488C100.75 36.3684 100.819 36.0603 100.816 35.7487Z" fill="white"/>
<path d="M117.386 35.6385C117.394 36.1371 117.319 36.6335 117.166 37.1081C117.024 37.5223 116.819 37.9125 116.56 38.2654C116.284 38.5903 115.969 38.8803 115.623 39.1288C115.246 39.3648 114.846 39.5617 114.429 39.7166C113.975 39.8738 113.507 39.9906 113.033 40.0657C112.485 40.1427 111.932 40.1796 111.379 40.1759H107.375C107.248 40.1819 107.121 40.1604 107.003 40.1128C106.885 40.0652 106.779 39.9927 106.692 39.9003C106.604 39.8078 106.538 39.6975 106.497 39.5771C106.457 39.4566 106.443 39.3287 106.456 39.2023V26.0492C106.444 25.9138 106.462 25.7774 106.51 25.6501C106.557 25.5228 106.633 25.408 106.732 25.3143C106.911 25.1629 107.14 25.0843 107.375 25.0939H111.159C111.948 25.0809 112.737 25.1548 113.51 25.3143C114.088 25.452 114.636 25.6949 115.127 26.0308C115.558 26.3384 115.905 26.7488 116.137 27.2248C116.386 27.7525 116.506 28.3318 116.486 28.9149C116.485 29.269 116.436 29.6213 116.339 29.962C116.254 30.2703 116.117 30.5622 115.935 30.8254C115.76 31.1021 115.536 31.3449 115.274 31.5419C115.005 31.744 114.708 31.905 114.392 32.0195C114.802 32.0928 115.199 32.2291 115.568 32.4237C115.924 32.6224 116.247 32.8766 116.523 33.1768C117.093 33.8691 117.399 34.7415 117.386 35.6385ZM113.418 29.3007C113.427 29.0196 113.383 28.7394 113.29 28.474C113.197 28.2477 113.052 28.0463 112.867 27.8862C112.662 27.7066 112.416 27.5803 112.151 27.5188C111.78 27.4186 111.396 27.3752 111.012 27.3902H109.469V31.2479H111.177C111.54 31.2621 111.902 31.206 112.243 31.0826C112.488 30.9984 112.71 30.8583 112.892 30.6734C113.074 30.4884 113.21 30.2637 113.29 30.0171C113.372 29.7871 113.416 29.545 113.418 29.3007ZM114.208 35.7487C114.217 35.4267 114.154 35.1067 114.025 34.8118C113.911 34.5414 113.735 34.302 113.51 34.1137C113.256 33.9121 112.962 33.7679 112.647 33.6912C112.203 33.5765 111.745 33.527 111.287 33.5442H109.45V37.8245H111.673C112.033 37.834 112.392 37.7907 112.739 37.696C113.02 37.6139 113.283 37.4765 113.51 37.2918C113.719 37.1147 113.888 36.8956 114.006 36.6488C114.114 36.3615 114.164 36.0555 114.153 35.7487H114.208Z" fill="#F17C24"/>
<path d="M133.405 32.4605C133.425 33.5919 133.27 34.7196 132.946 35.8039C132.672 36.7356 132.195 37.5951 131.55 38.3206C130.93 39.024 130.148 39.5661 129.272 39.9004C128.267 40.2709 127.202 40.4516 126.131 40.4332C125.089 40.4551 124.052 40.2998 123.063 39.9739C122.233 39.6891 121.484 39.2104 120.877 38.5778C120.267 37.8833 119.821 37.0609 119.572 36.1712C119.258 35.0477 119.109 33.8842 119.131 32.7176C119.145 31.5951 119.324 30.4808 119.664 29.411C119.95 28.4953 120.426 27.6502 121.06 26.931C121.684 26.2313 122.464 25.6899 123.338 25.3511C124.346 24.9638 125.419 24.7766 126.498 24.8C127.521 24.7782 128.54 24.9336 129.511 25.2592C130.351 25.5326 131.109 26.0127 131.715 26.6554C132.33 27.3417 132.782 28.158 133.038 29.0435C133.329 30.1581 133.452 31.3096 133.405 32.4605ZM130.19 32.6258C130.201 31.8989 130.139 31.1728 130.007 30.4581C129.906 29.8637 129.687 29.2954 129.364 28.7864C129.078 28.3223 128.663 27.9519 128.17 27.7209C127.591 27.4658 126.965 27.3341 126.333 27.3341C125.7 27.3341 125.074 27.4658 124.496 27.7209C124.003 28.0006 123.582 28.3904 123.265 28.8599C122.952 29.3742 122.734 29.9403 122.622 30.5315C122.487 31.1905 122.42 31.8614 122.42 32.5339C122.419 33.2787 122.481 34.0222 122.603 34.7567C122.713 35.3545 122.931 35.9272 123.246 36.4468C123.535 36.9012 123.941 37.2693 124.422 37.5123C125 37.7683 125.627 37.8937 126.259 37.8797C126.897 37.8937 127.528 37.7485 128.096 37.4572C128.597 37.1883 129.02 36.7963 129.327 36.3182C129.65 35.8007 129.874 35.2276 129.988 34.6281C130.12 33.9688 130.188 33.2982 130.19 32.6258Z" fill="#F17C24"/>
<path d="M145.915 39.0187C146.031 39.2221 146.123 39.4377 146.191 39.6616C146.225 39.7202 146.243 39.7868 146.243 39.8545C146.243 39.9222 146.225 39.9888 146.191 40.0474C146.036 40.1443 145.859 40.2011 145.676 40.2127H143.839C143.675 40.2299 143.508 40.2299 143.343 40.2127C143.243 40.1949 143.152 40.1429 143.086 40.0657C143.019 39.9991 142.968 39.9173 142.939 39.827L140.11 34.3159L137.281 39.827C137.252 39.9173 137.202 39.9991 137.134 40.0657C137.066 40.1398 136.976 40.1911 136.877 40.2127C136.706 40.2282 136.534 40.2282 136.363 40.2127H134.526C134.366 40.2005 134.213 40.1432 134.085 40.0474C134.056 39.9873 134.04 39.9213 134.04 39.8545C134.04 39.7877 134.056 39.7217 134.085 39.6616C134.169 39.4411 134.267 39.2263 134.379 39.0187L138.053 32.4237L134.691 26.2329C134.579 26.0212 134.487 25.7999 134.415 25.5716C134.415 25.4062 134.415 25.2776 134.415 25.2041C134.557 25.0943 134.732 25.036 134.911 25.0388H136.748C136.92 25.0233 137.092 25.0233 137.263 25.0388C137.358 25.0683 137.446 25.1185 137.52 25.1858L137.667 25.4246L140.312 30.403L142.884 25.4246L143.031 25.1858C143.098 25.1183 143.18 25.0678 143.27 25.0388C143.429 25.0228 143.589 25.0228 143.748 25.0388H145.383C145.55 25.0385 145.713 25.097 145.842 25.2041C145.881 25.2575 145.902 25.3218 145.902 25.3878C145.902 25.4538 145.881 25.5182 145.842 25.5716C145.778 25.7998 145.691 26.0212 145.585 26.2329L142.223 32.3869L145.915 39.0187Z" fill="#F17C24"/>
<path d="M61.6509 45.2095C61.9349 45.2075 62.2162 45.2637 62.4776 45.3748C62.7317 45.4906 62.9622 45.6526 63.1573 45.8524C63.3578 46.0573 63.5141 46.3011 63.6165 46.5689C63.7276 46.8366 63.7838 47.124 63.7819 47.4139C63.7858 47.7099 63.7295 48.0036 63.6165 48.2773C63.5137 48.5351 63.3642 48.7717 63.1756 48.9754C62.9781 49.1813 62.7415 49.3459 62.4798 49.4594C62.218 49.5729 61.9362 49.6332 61.6509 49.6367H60.1078V45.2095H61.6509ZM61.6509 49.0672C61.8594 49.0639 62.0652 49.0202 62.2571 48.9386C62.4469 48.8532 62.616 48.7278 62.7531 48.5712C62.8948 48.4256 63.0016 48.2497 63.0654 48.0568C63.1503 47.8531 63.194 47.6346 63.194 47.4139C63.194 47.1932 63.1503 46.9747 63.0654 46.771C62.9903 46.5835 62.8848 46.4097 62.7531 46.2566C62.6128 46.1082 62.4442 45.9895 62.2571 45.9075C62.0681 45.8173 61.8603 45.7732 61.6509 45.7789H60.8242V49.0672H61.6509Z" fill="white"/>
<path d="M67.7862 47.2118C67.7344 47.387 67.6468 47.5497 67.529 47.6894C67.4221 47.8394 67.2843 47.9647 67.1248 48.0568L67.9148 49.5999H67.2351L66.5554 48.2589H65.4532V49.6183H64.8102V45.1726H66.2431C66.414 45.1535 66.5865 45.1535 66.7574 45.1726C66.9137 45.2174 67.0624 45.2856 67.1983 45.3747C67.5186 45.5701 67.7544 45.878 67.8597 46.2381V46.3667V46.5137V46.6607C67.8601 46.7344 67.8893 46.7775 67.8308 46.8223C67.7722 46.8671 67.655 46.7637 67.655 46.7637C67.655 46.7637 67.786 46.7638 67.8308 46.8223C67.8756 46.8809 67.7862 47.1383 67.7862 47.2118ZM66.2431 47.7629C66.3713 47.7632 66.4975 47.7317 66.6105 47.671C66.7228 47.619 66.823 47.5439 66.9044 47.4506C66.9827 47.3575 67.0448 47.2519 67.0881 47.1383C67.1144 47.011 67.1643 46.8921 67.1276 46.7344C67.167 46.5405 67.1124 46.5063 67.0881 46.3851C67.0448 46.2714 66.9827 46.1659 66.9044 46.0728C66.823 45.9795 66.7228 45.9044 66.6105 45.8524C66.4975 45.7917 66.3713 45.7601 66.2431 45.7605H65.398V47.7812L66.2431 47.7629Z" fill="white"/>
<path d="M69.4398 48.9753H71.4055V49.6183H68.7969V45.2094H71.3504V45.834H69.5133V47.322H71.2401V47.9282H69.5133L69.4398 48.9753Z" fill="white"/>
<path d="M72.3422 49.6183L74.1793 45.191L76.0163 49.6183H75.355L75.2264 49.2693H73.2056L73.0587 49.6183H72.3422ZM73.371 48.6998H74.9508L74.1609 46.679L73.371 48.6998Z" fill="white"/>
<path d="M80.6273 45.2094L81.4539 49.6367H80.7926L80.3701 47.1751L79.176 49.7101L78.0003 47.1751L77.5778 49.6367H76.9164L77.7247 45.2094L79.176 48.2589L80.6273 45.2094Z" fill="white"/>
<path d="M85.4221 45.191H86.1018V49.6183H85.4221V45.191Z" fill="#F17C24"/>
<path d="M91.6126 45.2095C91.8965 45.2075 92.1779 45.2637 92.4392 45.3748C92.6934 45.4906 92.9238 45.6526 93.1189 45.8524C93.3194 46.0573 93.4758 46.3011 93.5782 46.5689C93.6893 46.8366 93.7455 47.124 93.7435 47.4139C93.7475 47.7099 93.6912 48.0036 93.5782 48.2773C93.4754 48.5351 93.3259 48.7717 93.1373 48.9754C92.947 49.1808 92.7153 49.3436 92.4576 49.453C92.191 49.5699 91.9037 49.6324 91.6126 49.6367H90.0695V45.2095H91.6126ZM91.6126 49.0672C91.8267 49.0611 92.0381 49.0176 92.2372 48.9386C92.4185 48.848 92.5806 48.7232 92.7148 48.5712C92.856 48.4218 92.9682 48.2474 93.0454 48.0568C93.1768 47.752 93.2155 47.4152 93.1567 47.0885C93.0979 46.7619 92.9442 46.4597 92.7148 46.2198C92.5387 46.0791 92.3304 45.9844 92.1086 45.9443C91.9195 45.854 91.7117 45.8099 91.5023 45.8157H90.6757V49.104L91.6126 49.0672Z" fill="white"/>
<path d="M95.3417 48.9753H97.3074V49.6183H94.6988V45.2094H97.2706V45.834H95.3417V47.322H97.0686V47.9282H95.3417V48.9753Z" fill="white"/>
<path d="M100.688 47.4323L100.765 47.5255C100.855 47.6369 100.852 47.7592 100.908 47.8915C100.926 48.038 100.926 48.186 100.908 48.3324V48.4243C100.891 48.6426 100.815 48.852 100.688 49.0305C100.575 49.1921 100.432 49.3296 100.265 49.4346C100.083 49.5285 99.8819 49.5788 99.6773 49.5816H99.4568C99.2516 49.5832 99.0493 49.5326 98.869 49.4346C98.6935 49.3348 98.5428 49.1967 98.4281 49.0305L98.3362 48.8652L98.8874 48.4243C98.8795 48.4976 98.8795 48.5715 98.8874 48.6447C98.9317 48.7038 98.9809 48.7591 99.0343 48.8101C99.0944 48.8634 99.1626 48.9068 99.2364 48.9387H99.4568H99.6957C99.8514 48.9403 100.002 48.8852 100.121 48.7839C100.239 48.6825 100.316 48.5417 100.339 48.3875V48.2957C100.358 48.211 100.358 48.1232 100.339 48.0385C100.307 47.9647 100.263 47.8965 100.21 47.8364L100.008 47.6895C99.9294 47.6708 99.8476 47.6708 99.7691 47.6895H99.4568C99.3112 47.6876 99.1676 47.6563 99.0343 47.5976C98.9077 47.5418 98.7901 47.4675 98.6853 47.3772L98.5383 47.2302C98.4477 47.1189 98.3735 46.9951 98.3179 46.8628C98.2913 46.717 98.2913 46.5677 98.3179 46.4219C98.3375 46.207 98.4066 45.9994 98.52 45.8157C98.6392 45.6535 98.7889 45.5162 98.9608 45.4115C99.142 45.3157 99.3437 45.2653 99.5487 45.2646H99.9528C100.157 45.2642 100.357 45.3143 100.537 45.4105C100.716 45.5066 100.869 45.6459 100.982 45.8157L100.43 46.2566C100.401 46.1123 100.323 45.9825 100.209 45.8888C100.096 45.7952 99.9531 45.7435 99.8059 45.7422H99.567H99.3282C99.2544 45.774 99.1862 45.8174 99.1262 45.8708C99.0727 45.9218 99.0236 45.977 98.9792 46.0361C98.9713 46.1094 98.9713 46.1833 98.9792 46.2566C98.9602 46.3413 98.9602 46.4291 98.9792 46.5138C99.0042 46.5909 99.0485 46.6605 99.1078 46.7159L99.3099 46.8628C99.3884 46.8815 99.3729 46.8921 99.5341 46.9102C99.6953 46.9283 99.8857 46.9688 99.8857 46.9688C100.031 46.9708 100.205 46.998 100.339 47.0567C100.488 47.1892 100.56 47.2325 100.688 47.4323Z" fill="white"/>
<path d="M102.084 45.2094H102.727V49.6183H102.084V45.2094Z" fill="white"/>
<path d="M108.054 47.3037V47.5793C108.045 47.634 108.045 47.6898 108.054 47.7446C108.016 48.0037 107.929 48.253 107.797 48.4794C107.68 48.7113 107.517 48.9174 107.319 49.0856C107.126 49.2518 106.91 49.3881 106.676 49.4897C106.424 49.5844 106.156 49.6342 105.886 49.6367C105.595 49.6324 105.308 49.5699 105.041 49.453C104.775 49.3503 104.536 49.1867 104.343 48.9754C104.137 48.7783 103.975 48.5405 103.866 48.2773C103.753 48.0036 103.696 47.7099 103.7 47.4139C103.698 47.124 103.755 46.8366 103.866 46.5689C103.974 46.3 104.137 46.0563 104.343 45.8524C104.543 45.654 104.78 45.4978 105.041 45.3932C105.304 45.2656 105.594 45.2026 105.886 45.2095C106.111 45.2101 106.335 45.2473 106.548 45.3197C106.752 45.3779 106.945 45.4711 107.117 45.5952C107.288 45.716 107.442 45.858 107.576 46.0178C107.708 46.1878 107.819 46.3728 107.907 46.5689H107.154C107.021 46.3468 106.839 46.1582 106.621 46.0178C106.399 45.8844 106.145 45.8145 105.886 45.8157C105.684 45.8214 105.485 45.865 105.298 45.9443C105.118 46.0283 104.956 46.1469 104.821 46.2933C104.528 46.5932 104.364 46.9949 104.362 47.4139C104.356 47.6291 104.4 47.8428 104.49 48.0385C104.561 48.2326 104.673 48.4084 104.821 48.5529C104.952 48.6991 105.115 48.8124 105.298 48.8835C105.482 48.9716 105.683 49.0157 105.886 49.0121C106.062 49.0193 106.238 48.9879 106.401 48.9203C106.567 48.8642 106.718 48.7699 106.842 48.6447C106.985 48.5413 107.099 48.4019 107.172 48.2406C107.269 48.0888 107.338 47.9208 107.374 47.7446H105.831V47.1751H108.054C108.054 47.1751 108.054 47.2669 108.054 47.3037Z" fill="white"/>
<path d="M109.616 49.6183H109.009V45.1176L111.857 48.5345V45.2095H112.481V49.6183H111.875L109.616 46.8261V49.6183Z" fill="white"/>
<path d="M116.449 45.191H117.111V49.6183H116.449V45.191Z" fill="#F17C24"/>
<path d="M122.622 45.2095C122.912 45.2075 123.199 45.2637 123.467 45.3748C123.718 45.4952 123.948 45.6567 124.147 45.8524C124.335 46.0666 124.49 46.3081 124.606 46.5688C124.717 46.8366 124.773 47.124 124.771 47.4139C124.775 47.7099 124.719 48.0036 124.606 48.2773C124.503 48.5351 124.354 48.7717 124.165 48.9754C123.971 49.1769 123.741 49.3391 123.485 49.453C123.212 49.57 122.919 49.6324 122.622 49.6367H121.079V45.2095H122.622ZM122.622 49.0672C122.837 49.0658 123.049 49.0221 123.246 48.9386C123.43 48.8436 123.598 48.7195 123.742 48.5712C123.878 48.4208 123.984 48.2463 124.055 48.0568C124.202 47.6408 124.202 47.187 124.055 46.771C123.98 46.5835 123.874 46.4097 123.742 46.2566C123.602 46.1082 123.434 45.9895 123.246 45.9075C123.051 45.8177 122.837 45.7737 122.622 45.7789H121.795V49.0672H122.622Z" fill="white"/>
<path d="M125.727 45.2094H126.37V49.6183H125.727V45.2094Z" fill="white"/>
<path d="M131.697 47.3037V47.5793C131.688 47.6341 131.688 47.6899 131.697 47.7446C131.659 48.0037 131.572 48.2531 131.44 48.4794C131.323 48.7114 131.16 48.9175 130.962 49.0856C130.769 49.2519 130.553 49.3881 130.319 49.4898C130.066 49.5845 129.799 49.6342 129.529 49.6368C129.232 49.6306 128.94 49.5683 128.666 49.4531C128.408 49.3436 128.177 49.1808 127.986 48.9754C127.78 48.7783 127.618 48.5406 127.509 48.2773C127.396 48.0037 127.339 47.71 127.343 47.4139C127.341 47.124 127.397 46.8367 127.509 46.5689C127.617 46.3001 127.78 46.0563 127.986 45.8525C128.182 45.6586 128.413 45.5028 128.666 45.3932C128.937 45.2691 129.231 45.2064 129.529 45.2095C129.754 45.2102 129.978 45.2474 130.191 45.3197C130.395 45.378 130.588 45.4712 130.76 45.5953C130.93 45.7161 131.085 45.8581 131.219 46.0178C131.351 46.1879 131.462 46.3729 131.55 46.5689H130.797C130.664 46.3468 130.482 46.1583 130.264 46.0178C130.042 45.8845 129.788 45.8146 129.529 45.8157C129.327 45.8214 129.128 45.865 128.941 45.9443C128.758 46.0324 128.59 46.1503 128.445 46.2934C128.315 46.4409 128.21 46.6084 128.133 46.7893C128.045 46.9856 128.001 47.1988 128.005 47.4139C127.999 47.6292 128.043 47.8429 128.133 48.0386C128.204 48.2281 128.31 48.4025 128.445 48.5529C128.586 48.6959 128.755 48.8084 128.941 48.8836C129.125 48.9717 129.326 49.0157 129.529 49.0122C129.705 49.0193 129.881 48.988 130.044 48.9203C130.21 48.8643 130.361 48.7699 130.485 48.6448C130.618 48.5312 130.73 48.3942 130.815 48.2406C130.912 48.0889 130.98 47.9208 131.017 47.7446H129.474V47.1752H131.697C131.697 47.1752 131.697 47.267 131.697 47.3037Z" fill="white"/>
<path d="M132.652 45.2094H133.295V49.6183H132.652V45.2094Z" fill="white"/>
<path d="M134.25 45.2094H137.061V45.834H135.977V49.6183H135.334V45.834H134.25V45.2094Z" fill="white"/>
<path d="M138.035 45.2094H138.678V49.6183H138.035V45.2094Z" fill="white"/>
<path d="M142.444 45.2094L140.607 48.9937H142.444V49.6183H139.633L141.47 45.8156H139.872V45.191H142.462L142.444 45.2094Z" fill="white"/>
<path d="M144.023 48.9753H145.989V49.6183H143.399V45.2094H145.952V45.834H144.023V47.322H145.86V47.9282H144.023V48.9753Z" fill="white"/>
</svg>
